<svg xmlns="http://www.w3.org/2000/svg" height="170.944" width="199.569"><g stroke="#3e4147" stroke-linecap="round" stroke-linejoin="round" stroke-width="2" transform="translate(-3584.355 -3885.004)"><path d="M3782.88 3934.527c.7 19.664-7.887 35.932-19.183 36.335-.84.03-8.592.49-9.411.348-10.2-1.77-11.665-17.021-12.314-35.223-.643-18-.107-33.245 9.772-35.988.912-.253 8.456-.314 9.411-.348 11.297-.403 21.024 15.211 21.725 34.876z" fill="#85c3e9"/><path d="M3774.983 3933.951c8.116 28.505 1.421 55.393-14.954 60.055-1.218.347-12.389 3.815-13.638 3.9-15.559 1.09-23.2-20.687-30.708-47.073-7.43-26.095-12.143-48.58 1.316-56.153 1.243-.7 12.254-3.508 13.638-3.9 16.375-4.663 36.23 14.665 44.346 43.171z" fill="#85c3e9"/><ellipse cx="30.829" cy="53.665" fill="#9569b8" rx="30.829" ry="53.665" transform="rotate(-15.9 15815.738 -11249.049)"/><path d="M3615.135 3988.207l105.831-55.7c13.528-8.753 30.238 13.925 17.506 23.872 0 0-108.616 67.158-107.423 64.852s-15.914-33.024-15.914-33.024z" fill="#85c3e9"/><path d="M3678.622 3971.225c14.142 26.047 13.477 53.748-1.486 61.872-1.113.6-11.257 6.426-12.458 6.785-14.946 4.459-27.151-15.126-40.242-39.236-12.946-23.845-22.453-44.759-10.971-55.087 1.06-.954 11.193-6.1 12.458-6.785 14.962-8.124 38.557 6.405 52.699 32.451z" fill="#85c3e9"/><ellipse cx="30.829" cy="53.665" fill="#9569b8" rx="30.829" ry="53.665" transform="rotate(-28.48 9592.432 -5085.3)"/><path d="M3647.024 3982.949c13.156 14.632 17.007 32.621 8.6 40.179-.625.561-6.275 5.889-7 6.305-8.961 5.189-19.868-5.57-32.046-19.115-12.044-13.4-21.414-25.429-15.6-33.873.537-.779 6.284-5.666 6.995-6.305 8.415-7.558 25.895-1.823 39.051 12.809z" fill="#85c3e9"/><ellipse cx="20.467" cy="35.628" fill="#9569b8" rx="20.467" ry="35.628" transform="rotate(-41.959 6995.77 -2680.557)"/></g></svg>
